<svg width="10" height="11" viewBox="0 0 10 11" fill="none" xmlns="http://www.w3.org/2000/svg">
<path fill-rule="evenodd" clip-rule="evenodd" d="M2.90368 9.47069C2.87458 9.44166 2.85149 9.40718 2.83574 9.36921C2.81998 9.33125 2.81187 9.29055 2.81187 9.24944C2.81187 9.20834 2.81998 9.16764 2.83574 9.12967C2.85149 9.0917 2.87458 9.05722 2.90368 9.02819L6.43305 5.49944L2.90368 1.97069C2.845 1.91201 2.81204 1.83243 2.81204 1.74944C2.81204 1.66646 2.845 1.58687 2.90368 1.52819C2.96236 1.46951 3.04195 1.43655 3.12493 1.43655C3.20792 1.43655 3.2875 1.46951 3.34618 1.52819L7.09618 5.27819C7.12528 5.30722 7.14837 5.34171 7.16413 5.37967C7.17988 5.41764 7.18799 5.45834 7.18799 5.49944C7.18799 5.54055 7.17988 5.58125 7.16413 5.61921C7.14837 5.65718 7.12528 5.69166 7.09618 5.72069L3.34618 9.47069C3.31715 9.49979 3.28267 9.52288 3.2447 9.53864C3.20674 9.55439 3.16603 9.5625 3.12493 9.5625C3.08383 9.5625 3.04313 9.55439 3.00516 9.53864C2.96719 9.52288 2.93271 9.49979 2.90368 9.47069Z" fill="#F2F2F2"/>
</svg>
