<svg width="40" height="41" viewBox="0 0 40 41" fill="none" xmlns="http://www.w3.org/2000/svg">
<path d="M20 17.6226L18.659 14.9391C18.326 14.2746 17.7485 13.3191 16.931 12.5466C16.127 11.7861 15.164 11.2686 14 11.2686C11.486 11.2686 9.5 13.2576 9.5 15.6486C9.5 17.4651 10.331 18.7476 12.302 20.7036C12.8075 21.2046 13.3835 21.7461 14.021 22.3431C15.683 23.9031 17.75 25.8441 20 28.4391C22.25 25.8441 24.317 23.9031 25.979 22.3431C26.6165 21.7461 27.194 21.2031 27.698 20.7036C29.669 18.7476 30.5 17.4651 30.5 15.6486C30.5 13.2576 28.514 11.2686 26 11.2686C24.8345 11.2686 23.873 11.7861 23.069 12.5466C22.2515 13.3191 21.674 14.2746 21.341 14.9391L20 17.6226ZM20.588 30.0606C20.5158 30.1461 20.4257 30.2149 20.3242 30.2621C20.2226 30.3092 20.112 30.3337 20 30.3337C19.888 30.3337 19.7774 30.3092 19.6758 30.2621C19.5743 30.2149 19.4842 30.1461 19.412 30.0606C17.0105 27.2076 14.837 25.1676 13.0475 23.4891C9.95 20.5806 8 18.7521 8 15.6486C8 12.4011 10.685 9.76855 14 9.76855C16.4 9.76855 18.0785 11.3436 19.106 12.7806C19.496 13.3281 19.793 13.8546 20 14.2686C20.2597 13.7506 20.5586 13.2531 20.894 12.7806C21.9215 11.3421 23.6 9.76855 26 9.76855C29.315 9.76855 32 12.4011 32 15.6486C32 18.7521 30.05 20.5806 26.9525 23.4891C25.163 25.1691 22.9895 27.2106 20.588 30.0606Z" fill="#0F0F0F"/>
</svg>
