<svg width="40" height="41" viewBox="0 0 40 41" fill="none" xmlns="http://www.w3.org/2000/svg">
<path d="M20.531 9.98755C20.4613 9.91771 20.3786 9.8623 20.2875 9.82449C20.1963 9.78668 20.0987 9.76721 20 9.76721C19.9014 9.76721 19.8037 9.78668 19.7126 9.82449C19.6214 9.8623 19.5387 9.91771 19.469 9.98755L10.469 18.9876C10.3994 19.0573 10.3442 19.1401 10.3067 19.2313C10.2691 19.3224 10.2498 19.42 10.25 19.5186V30.0186C10.25 30.2175 10.329 30.4082 10.4697 30.5489C10.6103 30.6895 10.8011 30.7686 11 30.7686H17.75C17.9489 30.7686 18.1397 30.6895 18.2803 30.5489C18.421 30.4082 18.5 30.2175 18.5 30.0186V24.0186H21.5V30.0186C21.5 30.2175 21.579 30.4082 21.7197 30.5489C21.8603 30.6895 22.0511 30.7686 22.25 30.7686H29C29.1989 30.7686 29.3897 30.6895 29.5303 30.5489C29.671 30.4082 29.75 30.2175 29.75 30.0186V19.5186C29.7502 19.42 29.7309 19.3224 29.6933 19.2313C29.6558 19.1401 29.6006 19.0573 29.531 18.9876L27.5 16.9581V12.0186C27.5 11.8196 27.421 11.6289 27.2803 11.4882C27.1397 11.3476 26.9489 11.2686 26.75 11.2686H25.25C25.0511 11.2686 24.8603 11.3476 24.7197 11.4882C24.579 11.6289 24.5 11.8196 24.5 12.0186V13.9581L20.531 9.98755ZM11.75 29.2686V19.8291L20 11.5791L28.25 19.8291V29.2686H23V23.2686C23 23.0696 22.921 22.8789 22.7803 22.7382C22.6397 22.5976 22.4489 22.5186 22.25 22.5186H17.75C17.5511 22.5186 17.3603 22.5976 17.2197 22.7382C17.079 22.8789 17 23.0696 17 23.2686V29.2686H11.75Z" fill="#0F0F0F"/>
</svg>
