<svg width="40" height="40" viewBox="0 0 40 40" fill="none" xmlns="http://www.w3.org/2000/svg">
<path d="M10.5 29.125C10.5 27.8652 11.0004 26.657 11.8912 25.7662C12.782 24.8754 13.9902 24.375 15.25 24.375H24.75C26.0098 24.375 27.218 24.8754 28.1088 25.7662C28.9996 26.657 29.5 27.8652 29.5 29.125C29.5 29.7549 29.2498 30.359 28.8044 30.8044C28.359 31.2498 27.7549 31.5 27.125 31.5H12.875C12.2451 31.5 11.641 31.2498 11.1956 30.8044C10.7502 30.359 10.5 29.7549 10.5 29.125Z" stroke="#0F0F0F" stroke-width="2" stroke-linejoin="round"/>
<path d="M20 19.625C21.9675 19.625 23.5625 18.03 23.5625 16.0625C23.5625 14.095 21.9675 12.5 20 12.5C18.0325 12.5 16.4375 14.095 16.4375 16.0625C16.4375 18.03 18.0325 19.625 20 19.625Z" stroke="#0F0F0F" stroke-width="2"/>
</svg>
