<svg width="40" height="41" viewBox="0 0 40 41" fill="none" xmlns="http://www.w3.org/2000/svg">
<g clip-path="url(#clip0_180_1482)">
<path d="M8 12.0186C8 11.4218 8.23705 10.8495 8.65901 10.4276C9.08096 10.0056 9.65326 9.76855 10.25 9.76855H26.75C27.3467 9.76855 27.919 10.0056 28.341 10.4276C28.7629 10.8495 29 11.4218 29 12.0186V27.8106C29 28.2606 28.925 28.7916 28.643 29.2686H29.75C29.9489 29.2686 30.1397 29.1895 30.2803 29.0489C30.421 28.9082 30.5 28.7175 30.5 28.5186V15.0186C30.5 14.8196 30.579 14.6289 30.7197 14.4882C30.8603 14.3476 31.0511 14.2686 31.25 14.2686C31.4489 14.2686 31.6397 14.3476 31.7803 14.4882C31.921 14.6289 32 14.8196 32 15.0186V28.5186C32 29.1153 31.7629 29.6876 31.341 30.1095C30.919 30.5315 30.3467 30.7686 29.75 30.7686H10.2455C9.95023 30.7686 9.65787 30.7103 9.38514 30.5972C9.11241 30.4841 8.86467 30.3183 8.6561 30.1093C8.44752 29.9003 8.28221 29.6522 8.16963 29.3793C8.05705 29.1063 7.99941 28.8138 8 28.5186V12.0186ZM26 29.2686C26.555 29.2686 26.981 28.9521 27.2795 28.6071C27.4175 28.4481 27.5 28.1886 27.5 27.8106V12.0186C27.5 11.8196 27.421 11.6289 27.2803 11.4882C27.1397 11.3476 26.9489 11.2686 26.75 11.2686H10.25C10.0511 11.2686 9.86032 11.3476 9.71967 11.4882C9.57901 11.6289 9.5 11.8196 9.5 12.0186V28.5186C9.5 28.9356 9.8345 29.2686 10.2455 29.2686H26Z" fill="#0F0F0F"/>
<path d="M11 12.7686H26V15.7686H11V12.7686ZM11 17.2686H17V21.7686H11V17.2686ZM11 23.2686H17V24.7686H11V23.2686ZM11 26.2686H17V27.7686H11V26.2686ZM18.5 17.2686H21.5V18.7686H18.5V17.2686ZM23 17.2686H26V18.7686H23V17.2686ZM18.5 20.2686H21.5V21.7686H18.5V20.2686ZM23 20.2686H26V21.7686H23V20.2686ZM18.5 23.2686H21.5V24.7686H18.5V23.2686ZM23 23.2686H26V24.7686H23V23.2686ZM18.5 26.2686H21.5V27.7686H18.5V26.2686ZM23 26.2686H26V27.7686H23V26.2686Z" fill="#0F0F0F"/>
</g>
<defs>
<clipPath id="clip0_180_1482">
<rect width="24" height="24" fill="white" transform="translate(8 8.26855)"/>
</clipPath>
</defs>
</svg>
