<svg width="40" height="41" viewBox="0 0 40 41" fill="none" xmlns="http://www.w3.org/2000/svg">
<g clip-path="url(#clip0_180_1484)">
<path fill-rule="evenodd" clip-rule="evenodd" d="M9.5 25.5186C9.5 25.7175 9.57902 25.9082 9.71967 26.0489C9.86032 26.1895 10.0511 26.2686 10.25 26.2686H27.9395L23.219 30.9876C23.0782 31.1284 22.999 31.3194 22.999 31.5186C22.999 31.7177 23.0782 31.9087 23.219 32.0496C23.3598 32.1904 23.5508 32.2695 23.75 32.2695C23.9492 32.2695 24.1402 32.1904 24.281 32.0496L30.281 26.0496C30.3508 25.9799 30.4063 25.8971 30.4441 25.806C30.4819 25.7149 30.5013 25.6172 30.5013 25.5186C30.5013 25.4199 30.4819 25.3222 30.4441 25.2311C30.4063 25.14 30.3508 25.0572 30.281 24.9876L24.281 18.9876C24.1402 18.8467 23.9492 18.7676 23.75 18.7676C23.5508 18.7676 23.3598 18.8467 23.219 18.9876C23.0782 19.1284 22.999 19.3194 22.999 19.5186C22.999 19.7177 23.0782 19.9087 23.219 20.0496L27.9395 24.7686H10.25C10.0511 24.7686 9.86032 24.8476 9.71967 24.9882C9.57902 25.1289 9.5 25.3196 9.5 25.5186ZM30.5 15.0186C30.5 15.2175 30.421 15.4082 30.2803 15.5489C30.1397 15.6895 29.9489 15.7686 29.75 15.7686H12.0605L16.781 20.4876C16.8507 20.5573 16.906 20.6401 16.9438 20.7312C16.9815 20.8223 17.0009 20.9199 17.0009 21.0186C17.0009 21.1172 16.9815 21.2148 16.9438 21.3059C16.906 21.397 16.8507 21.4798 16.781 21.5496C16.7113 21.6193 16.6285 21.6746 16.5374 21.7123C16.4463 21.7501 16.3486 21.7695 16.25 21.7695C16.1514 21.7695 16.0537 21.7501 15.9626 21.7123C15.8715 21.6746 15.7887 21.6193 15.719 21.5496L9.719 15.5496C9.64915 15.4799 9.59374 15.3971 9.55593 15.306C9.51812 15.2149 9.49866 15.1172 9.49866 15.0186C9.49866 14.9199 9.51812 14.8222 9.55593 14.7311C9.59374 14.64 9.64915 14.5572 9.719 14.4876L15.719 8.48756C15.8598 8.34673 16.0508 8.26761 16.25 8.26761C16.4492 8.26761 16.6402 8.34673 16.781 8.48756C16.9218 8.62839 17.0009 8.81939 17.0009 9.01856C17.0009 9.21772 16.9218 9.40873 16.781 9.54955L12.0605 14.2686H29.75C29.9489 14.2686 30.1397 14.3476 30.2803 14.4882C30.421 14.6289 30.5 14.8196 30.5 15.0186Z" fill="#0F0F0F"/>
</g>
<defs>
<clipPath id="clip0_180_1484">
<rect width="24" height="24" fill="white" transform="translate(8 8.26855)"/>
</clipPath>
</defs>
</svg>
